Coordinates
version=1
nRows=14
nColumns=24
inDegrees=yes

Units are S.I. units (second, meters, Newtons, ...)
Angles are in degrees.

endheader
time	pelvis_tilt	pelvis_list	pelvis_rotation	pelvis_tx	pelvis_ty	pelvis_tz	hip_flexion_r	hip_adduction_r	hip_rotation_r	knee_angle_r	ankle_angle_r	subtalar_angle_r	mtp_angle_r	hip_flexion_l	hip_adduction_l	hip_rotation_l	knee_angle_l	ankle_angle_l	subtalar_angle_l	mtp_angle_l	lumbar_extension	lumbar_bending	lumbar_rotation
      1.68800000	      1.39542921	      0.89405751	     -4.58709477	      1.31401972	      1.01503874	      0.32480410	     21.62109082	     -5.69286903	     -6.00858863	    -76.60235251	     -2.01056337	     -1.01959239	      1.26048523	     11.99722217	      1.81672076	     -7.32575555	    -15.04821059	      0.55423856	    -13.00119931	     -6.92706885	    -10.39507439	     -3.57599337	      1.19491763
      1.69216667	      1.52491382	      0.72936886	     -4.37958408	      1.31878747	      1.01626206	      0.32424474	     22.12450346	     -5.49458133	     -6.23642573	    -76.29810320	     -1.56076158	     -0.94736215	      1.31504148	     11.41295311	      1.76864575	     -7.04920744	    -14.74915154	      0.59857115	    -13.07776980	     -6.98223801	    -10.59456277	     -3.34109466	      1.04140506
      1.69633333	      1.62616383	      0.55789813	     -4.16731727	      1.32349864	      1.01738878	      0.32368898	     22.65123145	     -5.29190045	     -6.47358936	    -75.95035473	     -1.12037349	     -0.87500515	      1.35746191	     10.88396699	      1.70235101	     -6.77485348	    -14.49854230	      0.66839151	    -13.14386493	     -7.03190900	    -10.76548730	     -3.10139083	      0.93687829
      1.70050000	      1.75913657	      0.40924454	     -3.97835164	      1.32822830	      1.01855427	      0.32318136	     23.13134974	     -5.11373322	     -6.68669247	    -75.55782227	     -0.64758699	     -0.77980197	      1.39003173	     10.28951807	      1.65778991	     -6.51402857	    -14.17748617	      0.69359312	    -13.23328536	     -7.08273064	    -10.96954751	     -2.90033199	      0.79366033
      1.70466667	      1.81400704	      0.27813764	     -3.84713145	      1.33288018	      1.01949381	      0.32284341	     23.71587649	     -4.91420294	     -6.83973071	    -75.15510056	     -0.18848322	     -0.81536006	      1.40077251	      9.81211102	      1.59602170	     -6.36193437	    -13.92990719	      0.75623248	    -13.26658562	     -7.10087006	    -11.08678331	     -2.70962967	      0.76171753
      1.70883333	      2.01543984	      0.07950074	     -3.56543102	      1.33765120	      1.02076607	      0.32205974	     24.03871480	     -4.76048260	     -7.17685914	    -74.60952590	      0.21457240	     -0.65694757	      1.41418219	      9.15124704	      1.52206293	     -5.98914592	    -13.61551196	      0.82391047	    -13.34739793	     -7.15723130	    -11.36595961	     -2.40580268	      0.57641519
      1.71300000	      2.11690160	     -0.09006450	     -3.33811234	      1.34235274	      1.02178723	      0.32148714	     24.49270622	     -4.59069064	     -7.44844888	    -74.06027544	      0.62800690	     -0.61405365	      1.41763290	      8.61912706	      1.44265302	     -5.70016965	    -13.34978057	      0.87823882	    -13.43624437	     -7.21237618	    -11.53321863	     -2.16690935	      0.43259265
      1.71716667	      2.24163229	     -0.22247927	     -3.16387792	      1.34704355	      1.02280204	      0.32099837	     24.92238086	     -4.44744740	     -7.66349402	    -73.47853858	      1.04480735	     -0.55230336	      1.41218866	      8.03927197	      1.39408200	     -5.46644547	    -13.02625179	      0.91424217	    -13.52001205	     -7.27052736	    -11.72289776	     -1.96560821	      0.30155777
      1.72133333	      2.26486060	     -0.32611045	     -3.03741363	      1.35164652	      1.02353396	      0.32071212	     25.48692291	     -4.28906745	     -7.81300719	    -72.90244570	      1.47855229	     -0.57753792	      1.40827273	      7.60644515	      1.34267723	     -5.31325033	    -12.78270184	      0.98468897	    -13.54992521	     -7.29060287	    -11.80937303	     -1.81473014	      0.27440150
      1.72550000	      2.41596365	     -0.50011245	     -2.77711181	      1.35637865	      1.02457104	      0.31999118	     25.80803960	     -4.17059176	     -8.14008988	    -72.18257648	      1.84822529	     -0.42399744	      1.38281614	      7.01041507	      1.26236991	     -4.98194433	    -12.48301380	      1.06399428	    -13.62031733	     -7.34165217	    -12.01887954	     -1.52972387	      0.13276469
      1.72966667	      2.52744224	     -0.62746688	     -2.60351215	      1.36103274	      1.02545578	      0.31953182	     26.19933800	     -4.04217224	     -8.36258155	    -71.45744988	      2.22030455	     -0.39042042	      1.34468606	      6.45654198	      1.20351296	     -4.74688339	    -12.18006916	      1.09993473	    -13.72737569	     -7.39796634	    -12.19181148	     -1.33964562	     -0.00168243
      1.73383333	      2.59398048	     -0.73966420	     -2.40199322	      1.36564676	      1.02618865	      0.31903496	     26.62724135	     -3.94663947	     -8.60844516	    -70.71019889	      2.58585398	     -0.34840443	      1.29817948	      5.98051773	      1.15392569	     -4.50331005	    -11.93304722	      1.19672780	    -13.76719657	     -7.45039537	    -12.31577460	     -1.15632723	     -0.10041043
      1.73800000	      2.66949339	     -0.84155733	     -2.20839709	      1.37026803	      1.02691175	      0.31853759	     27.02861966	     -3.86410916	     -8.84721331	    -69.91351783	      2.93751795	     -0.32019932	      1.22527127	      5.48131851	      1.11530920	     -4.24576563	    -11.64774095	      1.25401661	    -13.84601169	     -7.52068166	    -12.45693137	     -0.97404711	     -0.23304452
      1.74216667	      2.64828568	     -0.89853979	     -2.12244316	      1.37487533	      1.02738625	      0.31836237	     27.55659063	     -3.75516635	     -8.95767752	    -69.11329565	      3.29600065	     -0.29384434	      1.20656764	      5.09366141	      1.08785696	     -4.15502001	    -11.39375418	      1.32873427	    -13.86676972	     -7.53711035	    -12.46981322	     -0.88467816	     -0.25887349
